<svg id="icon_media_videos_player_voice_hover" xmlns="http://www.w3.org/2000/svg" width="24" height="24" viewBox="0 0 24 24">
  <circle id="椭圆_1909" data-name="椭圆 1909" cx="12" cy="12" r="12" fill="#464646" opacity="0.3"/>
  <path id="声音_实体" d="M67.437,181.944l3.577-2.871a.56.56,0,0,1,.911.437V190.2a.56.56,0,0,1-.91.438L67.339,187.7H64.56a.56.56,0,0,1-.56-.56V182.5a.56.56,0,0,1,.56-.56Zm7.189,6.366a.56.56,0,1,1-.785-.8,3.763,3.763,0,0,0,.15-5.214.56.56,0,0,1,.829-.754,4.884,4.884,0,0,1-.194,6.768Zm2.664,2.43a.56.56,0,1,1-.8-.781,7.365,7.365,0,0,0,.08-10.183.56.56,0,1,1,.816-.768,8.486,8.486,0,0,1-.092,11.732Z" transform="translate(-60 -172.832)" fill="#fff"/>
</svg>
