<svg id="icon_link_pdf" xmlns="http://www.w3.org/2000/svg" xmlns:xlink="http://www.w3.org/1999/xlink" width="32" height="32" viewBox="0 0 32 32">
  <defs>
    <clipPath id="clip-path">
      <rect id="矩形_3550" data-name="矩形 3550" width="32" height="32" transform="translate(736 562)" fill="#fff" stroke="#707070" stroke-width="1" opacity="0.24"/>
    </clipPath>
  </defs>
  <g id="蒙版组_142" data-name="蒙版组 142" transform="translate(-736 -562)" clip-path="url(#clip-path)">
    <circle id="椭圆_1906" data-name="椭圆 1906" cx="12" cy="12" r="12" transform="translate(740 566)" fill="#eb5e5e"/>
    <g id="路径_22071" data-name="路径 22071" transform="translate(745.672 569.155)" fill="none">
      <path d="M11.192,12.217A4.607,4.607,0,0,1,8.52,11.134a25.857,25.857,0,0,0-4.3,1.372c-1.119,1.986-2.166,3-3.069,3a.94.94,0,0,1-.542-.144A1.064,1.064,0,0,1,0,14.383c0-.325.072-1.227,3.5-2.708A25.7,25.7,0,0,0,5.415,7.2c-.433-.866-1.372-3-.722-4.08a1.149,1.149,0,0,1,1.119-.578,1.2,1.2,0,0,1,.939.469c.469.65.433,2.022-.181,4.043A10.889,10.889,0,0,0,8.809,9.942a12.189,12.189,0,0,1,2.274-.253c1.7.036,1.95.83,1.913,1.3,0,1.227-1.191,1.227-1.805,1.227ZM1.083,14.455l.108-.036a2.325,2.325,0,0,0,1.191-1.011,2.853,2.853,0,0,0-1.3,1.047Zm4.8-10.831H5.776a.217.217,0,0,0-.144.036A2.949,2.949,0,0,0,5.849,5.5a3.034,3.034,0,0,0,.036-1.877Zm.253,5.235L6.1,8.932,6.065,8.9c-.325.83-.686,1.661-1.083,2.455l.072-.036v.072a21.024,21.024,0,0,1,2.455-.722l-.036-.036h.108A11.063,11.063,0,0,1,6.137,8.859Zm4.91,1.913a4.117,4.117,0,0,0-.939.072,3.026,3.026,0,0,0,1.083.289,1.6,1.6,0,0,0,.722-.072c0-.108-.144-.289-.866-.289Z" stroke="none"/>
      <path d="M 1.15527617931366 15.50221347808838 C 0.9747561812400818 15.50221347808838 0.7581461668014526 15.46611404418945 0.6137361526489258 15.35781383514404 C 0.216616153717041 15.17728328704834 -3.845672381430632e-06 14.78016376495361 -3.845672381430632e-06 14.38303375244141 C -3.845672381430632e-06 14.05811405181885 0.07220615446567535 13.15555381774902 3.501926183700562 11.67536354064941 C 4.296175956726074 10.23126411437988 4.909906387329102 8.751073837280273 5.415356159210205 7.198673725128174 C 4.982126235961914 6.332223892211914 4.043466091156006 4.202183723449707 4.693305969238281 3.119113683700562 C 4.909905910491943 2.721983671188354 5.343140602111816 2.505374431610107 5.81247615814209 2.541473627090454 C 6.173506259918213 2.541473627090454 6.534526348114014 2.721983671188354 6.751136302947998 3.010803699493408 C 7.220476150512695 3.660643815994263 7.184366226196289 5.032533645629883 6.570626258850098 7.054263591766357 C 7.148266315460205 8.137333869934082 7.906405925750732 9.112093925476074 8.808976173400879 9.942463874816895 C 9.567126274108887 9.798053741455078 10.32528591156006 9.689743995666504 11.0834264755249 9.689743995666504 C 12.78023624420166 9.72584342956543 13.03295612335205 10.52009391784668 12.99685573577881 10.98942375183105 C 12.99685573577881 12.21690368652344 11.80547618865967 12.21690368652344 11.19174575805664 12.21690368652344 L 11.191725730896 12.21690368652344 C 10.21695613861084 12.14469337463379 9.27829647064209 11.78367328643799 8.520146369934082 11.13383388519287 C 7.039956092834473 11.45875358581543 5.631956100463867 11.9280834197998 4.223976135253906 12.50572395324707 C 3.104796171188354 14.49134349822998 2.057826042175293 15.50221347808838 1.15527617931366 15.50221347808838 Z M 2.382756233215332 13.40827369689941 C 1.841216206550598 13.6248836517334 1.407986164093018 13.98591327667236 1.08306610584259 14.45524406433105 L 1.191376209259033 14.41913414001465 C 1.696806192398071 14.23862361907959 2.093936204910278 13.87760353088379 2.382756233215332 13.40827369689941 Z M 5.054326057434082 11.31433391571045 L 5.054326057434082 11.38653373718262 C 5.848576068878174 11.09772396087646 6.715026378631592 10.84500408172607 7.509276390075684 10.66449356079102 L 7.473176002502441 10.62838363647461 L 7.581486225128174 10.62838363647461 C 7.03994607925415 10.08685398101807 6.534516334533691 9.473114013671875 6.137386322021484 8.859374046325684 L 6.137396335601807 8.859374046325684 L 6.137386322021484 8.859374046325684 L 6.101285934448242 8.931583404541016 L 6.065186023712158 8.89548397064209 C 5.7402663230896 9.725833892822266 5.379246234893799 10.55618381500244 4.982116222381592 11.35043334960938 L 5.054326057434082 11.31433391571045 Z M 11.04730606079102 10.77280330657959 C 10.72238636016846 10.77280330657959 10.43356609344482 10.77280330657959 10.10864639282227 10.84501361846924 C 10.46966648101807 11.0255241394043 10.83068656921387 11.09772396087646 11.19171619415283 11.13383388519287 C 11.44442367553711 11.16993141174316 11.69714641571045 11.13383293151855 11.91375637054443 11.06162357330322 C 11.91375637054443 10.95332336425781 11.76934623718262 10.77280330657959 11.04730606079102 10.77280330657959 Z M 5.776366233825684 3.6245436668396 C 5.7402663230896 3.6245436668396 5.668066024780273 3.6245436668396 5.631956100463867 3.660643815994263 C 5.487555980682373 4.274383544921875 5.595856189727783 4.924233913421631 5.848576068878174 5.50187349319458 C 6.065186023712158 4.888133525848389 6.065186023712158 4.238293647766113 5.884675979614258 3.624553680419922 L 5.884675979614258 3.6245436668396 L 5.776366233825684 3.6245436668396 Z" stroke="none" fill="#fff"/>
    </g>
  </g>
</svg>
