<svg id="icon_media_music" xmlns="http://www.w3.org/2000/svg" width="70.511" height="77.635" viewBox="0 0 70.511 77.635">
  <path id="路径_21981" data-name="路径 21981" d="M949.9,642.659a12.61,12.61,0,0,1-8.512-3.229,10.683,10.683,0,0,1-3.611-7.958,11.478,11.478,0,0,1,9.776-10.956l7.85-1.46V581.469a9.857,9.857,0,0,1,8.2-9.445l31.735-6.745a12.22,12.22,0,0,1,2.393-.252,10.184,10.184,0,0,1,10.561,9.715v46.813a11.619,11.619,0,0,1-9.915,11.119l-.213.034a13.459,13.459,0,0,1-2.423.225,12.635,12.635,0,0,1-8.519-3.229,10.682,10.682,0,0,1-3.605-7.952,11.468,11.468,0,0,1,9.777-10.957l7.85-1.471V585.282L962.455,593.5V631.27a11.612,11.612,0,0,1-9.914,11.114l-.208.033a13.1,13.1,0,0,1-2.434.242Z" transform="translate(-937.775 -565.023)" fill="#1967d2"/>
</svg>
