<svg id="image_folder_none" xmlns="http://www.w3.org/2000/svg" xmlns:xlink="http://www.w3.org/1999/xlink" width="260" height="100" viewBox="0 0 260 100">
  <defs>
    <linearGradient id="linear-gradient" x1="0.5" y1="0.144" x2="0.5" y2="0.5" gradientUnits="objectBoundingBox">
      <stop offset="0" stop-color="#979797"/>
      <stop offset="1" stop-color="#717171"/>
    </linearGradient>
  </defs>
  <g id="Group_5760" data-name="Group 5760" transform="translate(-517.992 -324)">
    <g id="Rectangle_3528" data-name="Rectangle 3528" transform="translate(517.992 324)" fill="#fff" stroke="#707070" stroke-width="1" opacity="0">
      <rect width="260" height="100" stroke="none"/>
      <rect x="0.5" y="0.5" width="259" height="99" fill="none"/>
    </g>
    <g id="Group_5761" data-name="Group 5761" transform="translate(9 -16)">
      <g id="联合_19" data-name="联合 19" transform="translate(-73 -135)">
        <path id="联合_19-2" data-name="联合 19" d="M750,559a4,4,0,0,1-4-4V500a4,4,0,0,1,4-4h16a5.288,5.288,0,0,1,5,3l1,2h48a4,4,0,0,1,4,4v50a4,4,0,0,1-4,4Z" fill="url(#linear-gradient)"/>
      </g>
      <rect id="Rectangle_3448" data-name="Rectangle 3448" width="42" height="41" transform="matrix(0.998, -0.07, 0.07, 0.998, 677.622, 374.479)" fill="#a2a2a2"/>
      <rect id="Rectangle_3449" data-name="Rectangle 3449" width="42" height="41" transform="translate(687.867 370.875) rotate(5)" fill="#e3e8eb"/>
      <rect id="Rectangle_3450" data-name="Rectangle 3450" width="40.935" height="41" transform="translate(705.667 369.621) rotate(6)" fill="#feffff"/>
      <path id="Path_22038" data-name="Path 22038" d="M14,10H84a4,4,0,0,1,4,4L78,47a4,4,0,0,1-4,4H4a4,4,0,0,1-4-4L10,14A4,4,0,0,1,14,10Z" transform="translate(673 374)" fill="#d1d1d1"/>
      <path id="Path_22040" data-name="Path 22040" d="M1.192,10H18.666c.551,0,1,.225,1,.5l-.194,2.155c0,.278-.447.5-1,.5H1c-.551,0-1-.225-1-.5L.194,10.5C.194,10.225.641,10,1.192,10Z" transform="translate(710.043 383.127)" fill="none" opacity="0.6"/>
    </g>
    <g id="矩形_3453" data-name="矩形 3453" transform="translate(535.296 343.015) rotate(11)">
      <g id="Path_21976" data-name="Path 21976" transform="translate(-536.034 -604.258)" fill="none" stroke-dasharray="8">
        <path d="M579.772,617.793v37.851a2.377,2.377,0,0,1-2.376,2.383h-38.02A2.377,2.377,0,0,1,537,655.644v-49.26A2.377,2.377,0,0,1,539.376,604h26.645Z" stroke="none"/>
        <path d="M 539.3760986328125 602 L 547.3760986328125 602 L 547.3760986328125 604 C 547.3760986328125 604 539.3760986328125 604 539.3760986328125 604 L 539.3760986328125 602 Z M 555.3760986328125 602 L 563.3760986328125 602 L 563.3760986328125 604 C 563.3760986328125 604 555.3760986328125 604 555.3760986328125 604 L 555.3760986328125 602 Z M 571.21826171875 606.380126953125 L 576.8663940429688 612.0457763671875 L 575.4500122070312 613.457763671875 L 569.8018798828125 607.7921752929688 L 571.21826171875 606.380126953125 Z M 579.7717895507812 619.6715698242188 L 581.7717895507812 619.6715698242188 L 581.7717895507812 627.6715698242188 L 579.7717895507812 627.6715698242188 L 579.7717895507812 619.6715698242188 Z M 579.7717895507812 635.6715698242188 L 581.7717895507812 635.6715698242188 L 581.7717895507812 643.6715698242188 L 579.7717895507812 643.6715698242188 L 579.7717895507812 635.6715698242188 Z M 579.7717895507812 651.6715698242188 L 581.7717895507812 651.6715698242188 L 581.7717895507812 655.64404296875 C 581.7717895507812 658.0610961914062 579.8086547851562 660.0274658203125 577.3956298828125 660.0274658203125 L 577.1077880859375 660.0274658203125 L 577.1077880859375 658.0274658203125 L 577.3956298828125 658.0274658203125 C 578.7103881835938 658.0274658203125 579.7717895507812 656.962890625 579.7717895507812 655.64404296875 L 579.7717895507812 651.6715698242188 Z M 561.1077880859375 658.0274658203125 L 569.1077880859375 658.0274658203125 L 569.1077880859375 660.0274658203125 L 561.1077880859375 660.0274658203125 L 561.1077880859375 658.0274658203125 Z M 545.1077880859375 658.0274658203125 L 553.1077880859375 658.0274658203125 L 553.1077880859375 660.0274658203125 L 545.1077880859375 660.0274658203125 L 545.1077880859375 658.0274658203125 Z M 535 649.1154174804688 L 537 649.1154174804688 C 537 649.1154174804688 537 655.64404296875 537 655.64404296875 C 537 655.64404296875 537 655.64404296875 537 655.64404296875 L 537 655.64404296875 C 537 655.64404296875 537 655.64404296875 537 655.64404296875 C 537 655.6452026367188 537 655.6463623046875 537 655.6475219726562 C 537 655.648681640625 537 655.6497802734375 537 655.651123046875 C 537 655.6524047851562 537 655.6537475585938 537 655.655029296875 C 537 655.6553344726562 537 655.6554565429688 537 655.6558227539062 C 537 655.656982421875 537.0000610351562 655.6581420898438 537.0000610351562 655.6593017578125 C 537 655.6605224609375 537.0000610351562 655.6615600585938 537.0000610351562 655.662841796875 C 537.0001220703125 655.6641845703125 537.0000610351562 655.665283203125 537.0001220703125 655.6665649414062 C 537.0001220703125 655.6668701171875 537.0001220703125 655.667236328125 537.0001220703125 655.6675415039062 C 537.0001220703125 655.6686401367188 537.0001220703125 655.6697387695312 537.0001220703125 655.6708374023438 C 537.0001220703125 655.6709594726562 537.0001220703125 655.6710205078125 537.0001220703125 655.6710815429688 C 537.0001831054688 655.6722412109375 537.0001831054688 655.6734008789062 537.0001831054688 655.674560546875 C 537.000244140625 655.6758422851562 537.000244140625 655.6768188476562 537.000244140625 655.6781005859375 C 537.000244140625 655.6793823242188 537.000244140625 655.6806030273438 537.0003051757812 655.6818237304688 C 537.0003051757812 655.68212890625 537.0003051757812 655.6825561523438 537.0003051757812 655.6829223632812 C 537.0003051757812 655.68408203125 537.0003662109375 655.6851806640625 537.0003662109375 655.6863403320312 C 537.0003662109375 655.6875 537.0004272460938 655.6886596679688 537.0004272460938 655.6898193359375 C 537.0004272460938 655.6912231445312 537.00048828125 655.6922607421875 537.00048828125 655.6934814453125 C 537.0005493164062 655.69482421875 537.0005493164062 655.696044921875 537.0005493164062 655.6973876953125 C 537.0006103515625 655.6976928710938 537.0006103515625 655.6978149414062 537.0006103515625 655.6981201171875 C 537.0006103515625 655.69921875 537.0006103515625 655.7003784179688 537.0006713867188 655.7014770507812 C 537.000732421875 655.7026977539062 537.0007934570312 655.703857421875 537.000732421875 655.7049560546875 C 537.0009155273438 655.7062377929688 537.0009155273438 655.7073974609375 537.0008544921875 655.7086181640625 C 537.0008544921875 655.7090454101562 537.0008544921875 655.70947265625 537.0008544921875 655.7098388671875 C 537.0009155273438 655.7109985351562 537.0009155273438 655.7120971679688 537.0009765625 655.7132568359375 C 537.001220703125 655.7142944335938 537.0010375976562 655.7157592773438 537.0010986328125 655.716796875 C 537.0010986328125 655.7178955078125 537.0011596679688 655.7191162109375 537.0011596679688 655.72021484375 C 537.0012817382812 655.7213745117188 537.001220703125 655.7227172851562 537.0012817382812 655.7240600585938 C 537.0012817382812 655.724365234375 537.0013427734375 655.7247314453125 537.0013427734375 655.7250366210938 C 537.0013427734375 655.7261962890625 537.0014038085938 655.7273559570312 537.00146484375 655.7284545898438 C 537.00146484375 655.7294921875 537.00146484375 655.7308349609375 537.0015869140625 655.73193359375 C 537.0016479492188 655.733154296875 537.0016479492188 655.7343139648438 537.001708984375 655.7355346679688 C 537.001708984375 655.7359008789062 537.001708984375 655.736328125 537.0017700195312 655.7367553710938 C 537.0018310546875 655.739013671875 537.001953125 655.7412719726562 537.0020141601562 655.7435913085938 C 537.0020751953125 655.7446899414062 537.0021362304688 655.745849609375 537.0021362304688 655.7470703125 C 537.0023803710938 655.7483520507812 537.0022583007812 655.7496948242188 537.0023193359375 655.7507934570312 C 537.0023193359375 655.7511596679688 537.0023803710938 655.7515869140625 537.0023803710938 655.7518920898438 C 537.00244140625 655.7529907226562 537.00244140625 655.7540893554688 537.0025024414062 655.7552490234375 C 537.0027465820312 655.7565307617188 537.0025634765625 655.757568359375 537.002685546875 655.7586669921875 C 537.002685546875 655.7598876953125 537.0028076171875 655.7609252929688 537.0028686523438 655.76220703125 C 537.0028686523438 655.7633056640625 537.0029907226562 655.7646484375 537.0030517578125 655.765869140625 C 537.0031127929688 655.7674560546875 537.0032348632812 655.7689208984375 537.0032348632812 655.7703247070312 C 537.00341796875 655.7715454101562 537.00341796875 655.7726440429688 537.00341796875 655.7737426757812 C 537.0035400390625 655.7749633789062 537.0036010742188 655.7761840820312 537.0036010742188 655.7774047851562 C 537.003662109375 655.77783203125 537.003662109375 655.7782592773438 537.0037231445312 655.7786865234375 C 537.0037841796875 655.7797241210938 537.0038452148438 655.7808837890625 537.00390625 655.7819213867188 C 537.0039672851562 655.7830810546875 537.0040283203125 655.7841796875 537.0040893554688 655.785400390625 C 537.0040283203125 655.7863159179688 537.0042114257812 655.7877807617188 537.0042724609375 655.7888793945312 C 537.00439453125 655.7901611328125 537.00439453125 655.7913818359375 537.0045166015625 655.7926025390625 C 537.0045166015625 655.7930297851562 537.0045776367188 655.7933349609375 537.0045776367188 655.7937622070312 C 537.004638671875 655.7947998046875 537.0046997070312 655.7958984375 537.0047607421875 655.7969360351562 C 537.0049438476562 655.7981567382812 537.0049438476562 655.79931640625 537.0050048828125 655.800537109375 C 537.0049438476562 655.8015747070312 537.005126953125 655.802734375 537.0052490234375 655.8040161132812 C 537.0052490234375 655.8045043945312 537.0053100585938 655.804931640625 537.0053100585938 655.8053588867188 C 537.00537109375 655.8064575195312 537.0054931640625 655.8075561523438 537.0055541992188 655.80859375 C 537.0055541992188 655.809814453125 537.0057373046875 655.8109130859375 537.0057983398438 655.8120727539062 C 537.0057983398438 655.8132934570312 537.0059814453125 655.8143310546875 537.0060424804688 655.8154907226562 C 537.0060424804688 655.8167724609375 537.0061645507812 655.8178100585938 537.0062866210938 655.819091796875 C 537.0062866210938 655.819580078125 537.00634765625 655.8199462890625 537.00634765625 655.8204345703125 C 537.0064697265625 655.8214721679688 537.0065307617188 655.8225708007812 537.006591796875 655.8236083984375 C 537.0067138671875 655.82470703125 537.0067138671875 655.8258666992188 537.0068359375 655.8269653320312 C 537.0069580078125 655.8281860351562 537.0070190429688 655.8294067382812 537.0071411132812 655.8306274414062 C 537.0071411132812 655.8319091796875 537.0073852539062 655.83349609375 537.0074462890625 655.8350219726562 C 537.0076904296875 655.8361206054688 537.0076293945312 655.83740234375 537.0077514648438 655.8385620117188 C 537.0079345703125 655.8397216796875 537.0079956054688 655.8409423828125 537.008056640625 655.8419799804688 C 537.008056640625 655.8430786132812 537.0081787109375 655.8441772460938 537.00830078125 655.8455200195312 C 537.0084838867188 655.846923828125 537.008544921875 655.8485717773438 537.0087280273438 655.8500366210938 C 537.0086669921875 655.8511962890625 537.0087890625 655.8522338867188 537.0089721679688 655.8534545898438 C 537.0090942382812 655.8545532226562 537.0091552734375 655.855712890625 537.00927734375 655.8568115234375 C 537.0093994140625 655.8580932617188 537.0094604492188 655.8593139648438 537.0095825195312 655.8603515625 C 537.0098266601562 655.8618774414062 537.0099487304688 655.8633422851562 537.010009765625 655.864990234375 C 537.0101318359375 655.8660888671875 537.0101928710938 655.8672485351562 537.0103149414062 655.8682861328125 C 537.0104370117188 655.8694458007812 537.0104370117188 655.87060546875 537.0106201171875 655.8716430664062 C 537.0108642578125 655.8739624023438 537.0110473632812 655.8762817382812 537.0112915039062 655.878662109375 C 537.011474609375 655.8796997070312 537.0115356445312 655.8806762695312 537.0115966796875 655.8817749023438 C 537.01171875 655.8828735351562 537.0118408203125 655.8840942382812 537.011962890625 655.8851928710938 C 537.011962890625 655.885498046875 537.0120239257812 655.8858032226562 537.0120239257812 655.8861083984375 C 537.01220703125 655.8876953125 537.0123291015625 655.8892211914062 537.0125122070312 655.8908081054688 C 537.0123901367188 655.8916015625 537.0126953125 655.8923950195312 537.0127563476562 655.8933715820312 C 537.012939453125 655.8944702148438 537.0130615234375 655.8956909179688 537.0131225585938 655.8966674804688 C 537.0133666992188 655.89794921875 537.0133056640625 655.89892578125 537.0134887695312 655.9000244140625 C 537.0134887695312 655.900146484375 537.0134887695312 655.9003295898438 537.0134887695312 655.9004516601562 C 537.013671875 655.9020385742188 537.0138549804688 655.9034423828125 537.0139770507812 655.9049682617188 C 537.0140991210938 655.9061279296875 537.0142211914062 655.9071655273438 537.0143432617188 655.9081420898438 C 537.0144653320312 655.9091796875 537.0145874023438 655.9105224609375 537.0147094726562 655.9114990234375 C 537.0147705078125 655.911865234375 537.0147705078125 655.9122314453125 537.0148315429688 655.91259765625 C 537.0150756835938 655.9150390625 537.015380859375 655.91748046875 537.015625 655.9198608398438 C 537.015869140625 655.9209594726562 537.0159301757812 655.9219360351562 537.0159912109375 655.9230346679688 C 537.0161743164062 655.9241333007812 537.0162353515625 655.9252319335938 537.0164184570312 655.9263305664062 C 537.0164184570312 655.9266357421875 537.0164794921875 655.9269409179688 537.0164794921875 655.9273071289062 C 537.0166625976562 655.9286499023438 537.016845703125 655.9300537109375 537.0169677734375 655.9313354492188 C 537.0171508789062 655.9324951171875 537.0172119140625 655.9334716796875 537.0173950195312 655.9345703125 C 537.0173950195312 655.9356689453125 537.0176391601562 655.936767578125 537.0177612304688 655.9378662109375 C 537.017822265625 655.9381713867188 537.017822265625 655.9384155273438 537.0178833007812 655.938720703125 C 537.0181884765625 655.9412231445312 537.0184936523438 655.9437866210938 537.018798828125 655.9462890625 C 537.0191040039062 655.9473876953125 537.01904296875 655.9483032226562 537.0192260742188 655.9494018554688 C 537.019287109375 655.9505004882812 537.01953125 655.9515380859375 537.0195922851562 655.9525756835938 C 537.0196533203125 655.9528198242188 537.0196533203125 655.9530639648438 537.0197143554688 655.9532470703125 C 537.0198974609375 655.9548950195312 537.0201416015625 655.9564819335938 537.0203247070312 655.9581298828125 C 537.0203247070312 655.9592895507812 537.0205688476562 655.9600219726562 537.0206909179688 655.9608764648438 C 537.0209350585938 655.9619140625 537.0209350585938 655.9630126953125 537.0211181640625 655.9640502929688 C 537.0211791992188 655.96435546875 537.0211791992188 655.964599609375 537.021240234375 655.9649047851562 C 537.0215454101562 655.9674682617188 537.0219116210938 655.9700927734375 537.0222778320312 655.97265625 C 537.0223999023438 655.97412109375 537.0225830078125 655.9746704101562 537.0226440429688 655.9755859375 C 537.02294921875 655.9766845703125 537.0230102539062 655.9777221679688 537.0231323242188 655.9788208007812 C 537.0231323242188 655.9788818359375 537.0231323242188 655.9789428710938 537.0231323242188 655.97900390625 C 537.0234985351562 655.981689453125 537.02392578125 655.984375 537.0242919921875 655.9871215820312 C 537.0244750976562 655.988037109375 537.0245971679688 655.9892578125 537.0247192382812 655.990234375 C 537.0247802734375 655.9904174804688 537.0247802734375 655.9906005859375 537.0248413085938 655.9907836914062 C 537.0252075195312 655.9935302734375 537.025634765625 655.9962158203125 537.0260009765625 655.9989013671875 C 537.026123046875 656.0008544921875 537.0263061523438 656.0009155273438 537.0264282226562 656.0018310546875 C 537.0267944335938 656.0029907226562 537.0267944335938 656.00390625 537.0269165039062 656.0049438476562 C 537.0269165039062 656.0049438476562 537.0269165039062 656.0050048828125 537.0269165039062 656.0050048828125 C 537.02734375 656.0077514648438 537.0277709960938 656.0105590820312 537.0281982421875 656.0133666992188 C 537.0280151367188 656.0142211914062 537.0284423828125 656.0153198242188 537.0286254882812 656.0162963867188 C 537.0286865234375 656.0164794921875 537.0286865234375 656.0166625976562 537.0287475585938 656.016845703125 C 537.029296875 656.0204467773438 537.0299072265625 656.024169921875 537.0304565429688 656.0277709960938 C 537.030517578125 656.0279541015625 537.030517578125 656.028076171875 537.030517578125 656.0282592773438 C 537.0313110351562 656.0330200195312 537.0320434570312 656.0376586914062 537.0328369140625 656.0424194335938 C 537.0328979492188 656.0424194335938 537.0328979492188 656.04248046875 537.0328979492188 656.0425415039062 C 537.09326171875 656.4042358398438 537.2344970703125 656.7379150390625 537.4374389648438 657.0244750976562 L 535.80517578125 658.1802368164062 C 535.2784423828125 657.436279296875 535 656.559326171875 535 655.64404296875 L 535 649.1154174804688 Z M 535 633.1154174804688 L 537 633.1154174804688 C 537 633.1154174804688 537 641.1154174804688 537 641.1154174804688 L 535 641.1154174804688 L 535 633.1154174804688 Z M 535 617.1154174804688 L 537 617.1154174804688 C 537 617.1154174804688 537 625.1154174804688 537 625.1154174804688 L 535 625.1154174804688 L 535 617.1154174804688 Z M 539.3760986328125 602 L 539.3760986328125 604 C 538.0613403320312 604 537 605.0646362304688 537 606.383544921875 C 537 606.383544921875 537 609.1154174804688 537 609.1154174804688 L 535 609.1154174804688 L 535 606.383544921875 C 535 603.9664306640625 536.963134765625 602 539.3760986328125 602 Z" stroke="none" fill="#9a9a9a"/>
      </g>
      <path id="Path_21978" data-name="Path 21978" d="M13.915,2.4V13.863L0,0H11.51A2.4,2.4,0,0,1,13.915,2.4Z" transform="translate(45.804 13.214) rotate(180)" fill="#9a9a9a"/>
    </g>
    <g id="Group_5759" data-name="Group 5759" transform="matrix(1, 0.017, -0.017, 1, -2.737, -27.186)">
      <path id="Path_22037" data-name="Path 22037" d="M70.6,34.009C50.237-10.51,0,1.086,0,1.086" transform="translate(596.99 374.913) rotate(-25)" fill="none" stroke="#9a9a9a" stroke-width="2" stroke-dasharray="7"/>
      <path id="Path_22039" data-name="Path 22039" d="M0,0V5.406H5.734" transform="translate(673.421 379.097) rotate(-104)" fill="none" stroke="#9a9a9a" stroke-linecap="round" stroke-linejoin="round" stroke-width="2"/>
    </g>
  </g>
</svg>
