<svg id="icon_link_code" xmlns="http://www.w3.org/2000/svg" xmlns:xlink="http://www.w3.org/1999/xlink" width="32" height="32" viewBox="0 0 32 32">
  <defs>
    <clipPath id="clip-path">
      <rect id="矩形_3564" data-name="矩形 3564" width="32" height="32" transform="translate(961 705.855)" fill="#fff" stroke="#707070" stroke-width="1"/>
    </clipPath>
  </defs>
  <g id="icon_link_code-2" data-name="icon_link_code" transform="translate(-961 -705.855)" clip-path="url(#clip-path)">
    <path id="coda" d="M18.877.322H2.459A1.793,1.793,0,0,0,.669,2.107V19.964A1.794,1.794,0,0,0,2.46,21.75H18.878a1.793,1.793,0,0,0,1.791-1.786v-.833c-.03-1.072-.06-3.3-.06-4.316a1,1,0,0,0-.955-1.042,1.8,1.8,0,0,0-1.283.655,4.063,4.063,0,0,1-3.4.745,4.508,4.508,0,0,1-1.462-.536,4.25,4.25,0,0,1-2.12-3.631A4.288,4.288,0,0,1,13.5,7.375a5.078,5.078,0,0,1,1.463-.536,4.084,4.084,0,0,1,3.4.744,1.918,1.918,0,0,0,1.283.655A1,1,0,0,0,20.609,7.2c0-.982.03-3.244.06-4.315V2.107A1.794,1.794,0,0,0,18.878.322Z" transform="translate(966.33 710.534)" fill="#f46a54"/>
  </g>
</svg>
