<svg id="icon_link_spotify" xmlns="http://www.w3.org/2000/svg" xmlns:xlink="http://www.w3.org/1999/xlink" width="32" height="32" viewBox="0 0 32 32">
  <defs>
    <clipPath id="clip-path">
      <rect id="矩形_3557" data-name="矩形 3557" width="32" height="32" transform="translate(829 704.856)" fill="#fff" stroke="#707070" stroke-width="1"/>
    </clipPath>
  </defs>
  <g id="icon_link_spotify-2" data-name="icon_link_spotify" transform="translate(-829 -704.856)" clip-path="url(#clip-path)">
    <rect id="矩形_3558" data-name="矩形 3558" width="32" height="32" rx="4" transform="translate(829 704.856)" fill="none"/>
    <g id="组_5795" data-name="组 5795" transform="translate(832.772 708.628)">
      <g id="Layer_2" data-name="Layer 2">
        <g id="_62.spotify" data-name="62.spotify">
          <circle id="background" cx="12" cy="12" r="12" transform="translate(0.227 0.228)" fill="#12c64b"/>
          <g id="icon" transform="translate(4.557 7.35)">
            <path id="路径_22002" data-name="路径 22002" d="M55.617,105.376a.724.724,0,0,1-.989.26,10.733,10.733,0,0,0-5.608-1.251,13.925,13.925,0,0,0-2.908.383.724.724,0,0,1-.383-1.389,15.076,15.076,0,0,1,3.207-.439,14.219,14.219,0,0,1,3.09.224,10.437,10.437,0,0,1,3.335,1.217.723.723,0,0,1,.257.995Z" transform="translate(-43.529 -95.978)" fill="#fff"/>
            <path id="路径_22003" data-name="路径 22003" d="M53.168,82.512a.856.856,0,0,1-.741.425A.845.845,0,0,1,52,82.819a12.607,12.607,0,0,0-6.642-1.473,16.439,16.439,0,0,0-3.445.454.857.857,0,0,1-.454-1.652,17.768,17.768,0,0,1,3.8-.514,16.6,16.6,0,0,1,3.661.265,12.34,12.34,0,0,1,3.946,1.442A.857.857,0,0,1,53.168,82.512Z" transform="translate(-39.735 -75.908)" fill="#fff"/>
            <path id="路径_22004" data-name="路径 22004" d="M47.968,56.439a1.049,1.049,0,0,1-1.438.377c-5.355-3.129-12.3-1.269-12.366-1.251a1.052,1.052,0,1,1-.556-2.027,21.829,21.829,0,0,1,4.648-.627,20.586,20.586,0,0,1,4.489.325A15.166,15.166,0,0,1,47.586,55a1.052,1.052,0,0,1,.382,1.444Z" transform="translate(-32.794 -52.897)" fill="#fff"/>
          </g>
        </g>
      </g>
    </g>
  </g>
</svg>
