<svg id="icon_link_vimeo" xmlns="http://www.w3.org/2000/svg" xmlns:xlink="http://www.w3.org/1999/xlink" width="32" height="32" viewBox="0 0 32 32">
  <defs>
    <clipPath id="clip-path">
      <rect id="矩形_3559" data-name="矩形 3559" width="32" height="32" transform="translate(869 704.856)" fill="#fff" stroke="#707070" stroke-width="1"/>
    </clipPath>
  </defs>
  <g id="icon_link_vimeo-2" data-name="icon_link_vimeo" transform="translate(-869 -704.856)" clip-path="url(#clip-path)">
    <g id="组_5796" data-name="组 5796" transform="translate(873.777 709.633)">
      <rect id="background" width="22" height="22" rx="4" transform="translate(0.223 0.223)" fill="#4bf"/>
      <path id="icon" d="M45.825,44.154c-.055,1.175-.918,2.788-2.529,4.823-1.564,1.977-2.817,2.944-3.881,3.156a2.251,2.251,0,0,1-.429.042c-1.1,0-2.18-3-2.89-5.524-.371-1.3-.684-1.841-1.043-1.825a3.079,3.079,0,0,0-1.244.64l-.014.01a.349.349,0,0,1-.467-.067l-.266-.34a.325.325,0,0,1,.047-.453l.223-.177c1.434-1.214,3.18-2.6,3.963-2.6,1.028,0,1.186.545,1.5,1.632.015.052.3,1.254.611,2.448a8.083,8.083,0,0,0,.825,2.4c.092,0,.412-.4.989-1.276a9.676,9.676,0,0,0,.933-1.663.756.756,0,0,0-.049-.69.93.93,0,0,0-.715-.243,2.1,2.1,0,0,0-.545.075.266.266,0,0,1-.255-.075.245.245,0,0,1-.054-.259,3.347,3.347,0,0,1,3.419-2.491,1.842,1.842,0,0,1,1.336.514A2.6,2.6,0,0,1,45.825,44.154Z" transform="translate(-28.391 -35.914)" fill="#fff"/>
    </g>
  </g>
</svg>
